<?xml version="1.0" encoding="UTF-8"?>
<!DOCTYPE svg PUBLIC "-//W3C//DTD SVG 1.1//EN" "http://www.w3.org/Graphics/SVG/1.1/DTD/svg11.dtd">
<svg xmlns="http://www.w3.org/2000/svg" version="1.1" width="200px" height="200px" style="shape-rendering:geometricPrecision; text-rendering:geometricPrecision; image-rendering:optimizeQuality; fill-rule:evenodd; clip-rule:evenodd" xmlns:xlink="http://www.w3.org/1999/xlink">
<g><path style="opacity:0.965" fill="#fefffe" d="M 26.5,64.5 C 47.5,64.5 68.5,64.5 89.5,64.5C 89.5,69.8333 89.5,75.1667 89.5,80.5C 82.4964,80.2269 75.4964,79.8936 68.5,79.5C 67.0758,97.467 66.4092,115.467 66.5,133.5C 58.8045,133.831 51.1378,133.497 43.5,132.5C 45.5538,114.918 46.5538,97.2518 46.5,79.5C 39.5352,80.3409 32.5352,80.6743 25.5,80.5C 26.3424,75.213 26.6757,69.8797 26.5,64.5 Z"/></g>
<g><path style="opacity:0.963" fill="#fefffe" d="M 122.5,64.5 C 131.418,64.1828 140.251,64.5161 149,65.5C 156.746,88.2392 164.579,110.906 172.5,133.5C 164.833,133.5 157.167,133.5 149.5,133.5C 147.977,127.428 146.143,121.428 144,115.5C 135.892,114.185 127.725,114.185 119.5,115.5C 117.106,121.287 114.44,126.954 111.5,132.5C 103.5,133.833 95.5,133.833 87.5,132.5C 99.6902,110.12 111.357,87.4533 122.5,64.5 Z M 133.5,81.5 C 136.473,87.0852 138.473,93.0852 139.5,99.5C 135.116,99.8256 130.783,99.4922 126.5,98.5C 129.129,92.9154 131.462,87.2488 133.5,81.5 Z"/></g>
</svg>
